# xmcd
#
# Track frame offsets: 
#        150
#        42312
#        62430
#        103645
#        117239
#        158136
#        201005
#        208532
#
# Disc length: 2933 seconds
#
# Revision: 0
# Processed by: cddbd v1.5.2PL0 Copyright (c) Steve Scherf et al.
# Submitted via: ExactAudioCopy v0.95b4
#
DISCID=660b7308
DTITLE=The Darcy Perry Band - Live At Hamilton Gardens 2006 Disc2
DYEAR=2006
DGENRE=
TTITLE0=Night And Day
TTITLE1=Here Comes Winter
TTITLE2=Living At The House Of Blues
TTITLE3=Jades Song
TTITLE4=Heavy Rain
TTITLE5=Leave This Town
TTITLE6=Simen's Boogie
TTITLE7=Sweet Home Waikato
EXTD=
EXTT0=
EXTT1=
EXTT2=
EXTT3=
EXTT4=
EXTT5=
EXTT6=
EXTT7=
PLAYORDER=
